<?xml version="1.0" encoding="iso-8859-1"?>
<!-- Generator: Adobe Illustrator 19.0.0, SVG Export Plug-In . SVG Version: 6.00 Build 0)  -->
<svg version="1.1" id="Layer_1" xmlns="http://www.w3.org/2000/svg" xmlns:xlink="http://www.w3.org/1999/xlink" x="0px" y="0px"
	 viewBox="0 0 512 512" style="enable-background:new 0 0 512 512;" xml:space="preserve">
<circle style="fill:#FEE187;" cx="256" cy="256" r="256"/>
<path style="fill:#FFC61B;" d="M512,256c0-11.769-0.812-23.349-2.35-34.695l-52.002-52.002l-3.97,28.375L341.333,85.333L128,455.111
	l42.103,42.103C196.954,506.777,225.866,512,256,512C397.384,512,512,397.384,512,256z"/>
<rect x="128" y="85.333" style="fill:#427299;" width="213.333" height="369.778"/>
<rect x="233.02" y="85.333" style="fill:#386895;" width="108.318" height="369.778"/>
<rect x="163.547" y="124.983" style="fill:#FFEDB5;" width="56.889" height="51.717"/>
<rect x="248.88" y="124.983" style="fill:#FEE187;" width="56.889" height="51.717"/>
<rect x="163.547" y="202.559" style="fill:#FFEDB5;" width="56.889" height="51.717"/>
<rect x="248.88" y="202.559" style="fill:#FEE187;" width="56.889" height="51.717"/>
<rect x="163.547" y="280.135" style="fill:#FFEDB5;" width="56.889" height="51.717"/>
<rect x="248.88" y="280.135" style="fill:#FEE187;" width="56.889" height="51.717"/>
<rect x="206.214" y="369.778" style="fill:#FFEDB5;" width="56.889" height="85.333"/>
<rect x="233.02" y="369.778" style="fill:#FEE187;" width="30.096" height="85.333"/>
<path style="fill:#263A7A;" d="M393.149,142.222c-49.931,0-90.407,40.477-90.407,90.407c0,68.491,90.407,158.213,90.407,158.213
	s90.407-89.038,90.407-158.213C483.556,182.7,443.078,142.222,393.149,142.222z M393.149,255.231
	c-12.483,0-22.602-10.119-22.602-22.602c0-12.483,10.119-22.602,22.602-22.602s22.602,10.119,22.602,22.602
	C415.751,245.112,405.632,255.231,393.149,255.231z"/>
<path style="fill:#121149;" d="M393.149,142.222c-0.226,0-0.447,0.016-0.672,0.017v67.822c0.226-0.007,0.445-0.034,0.672-0.034
	c12.483,0,22.602,10.119,22.602,22.602c0,12.483-10.119,22.602-22.602,22.602c-0.228,0-0.447-0.028-0.672-0.034v134.968
	c0.434,0.44,0.672,0.676,0.672,0.676s90.407-89.036,90.407-158.211C483.556,182.7,443.078,142.222,393.149,142.222z"/>
<g>
</g>
<g>
</g>
<g>
</g>
<g>
</g>
<g>
</g>
<g>
</g>
<g>
</g>
<g>
</g>
<g>
</g>
<g>
</g>
<g>
</g>
<g>
</g>
<g>
</g>
<g>
</g>
<g>
</g>
</svg>
