<?xml version="1.0" encoding="utf-8"?>
<!-- Generator: Adobe Illustrator 19.0.1, SVG Export Plug-In . SVG Version: 6.00 Build 0)  -->
<svg version="1.1" id="Слой_1" xmlns="http://www.w3.org/2000/svg" xmlns:xlink="http://www.w3.org/1999/xlink" x="0px" y="0px"
	 viewBox="0 0 1000 1000" style="enable-background:new 0 0 1000 1000;" xml:space="preserve">
<style type="text/css">
	.st0{fill:#06B024;}
	.st1{fill:#9DC575;}
	.st2{fill:#231F20;}
	.st3{font-family:'NokiaSansS60-Bold';}
	.st4{font-size:157.2891px;}
	.st5{font-size:48.6906px;}
</style>
<g>
	<path class="st0" d="M185.4,344.8c-77.1,0-139.8,62.7-139.8,139.8c0,77.1,62.7,139.8,139.8,139.8c77.1,0,139.8-62.7,139.8-139.8
		C325.2,407.5,262.5,344.8,185.4,344.8z M185.4,375c60.5,0,109.7,49.2,109.7,109.7c0,2.4-0.1,4.7-0.2,7L224,451.7v135.6
		c-7,2.6-14.4,4.6-22,5.8V439.3l-16.6-9.4l-16.6,9.4v153.7c-7.6-1.2-15-3.1-22-5.8V451.7L76,491.6c-0.1-2.3-0.2-4.6-0.2-7
		C75.7,424.2,124.9,375,185.4,375z M81,518.1l40.3-22.7v78.2C102.5,560,88.2,540.6,81,518.1z M249.5,573.5v-78.2l40.3,22.7
		C282.6,540.6,268.3,560,249.5,573.5z"/>
	<path class="st1" d="M295.1,484.6c0,2.4-0.1,4.7-0.2,7L224,451.7v135.6c-7,2.6-14.4,4.6-22,5.8V439.3l-16.6-9.4v194.5
		c77.1,0,139.8-62.7,139.8-139.8c0-77.1-62.7-139.8-139.8-139.8V375C245.9,375,295.1,424.2,295.1,484.6z M249.5,573.5v-78.2
		l40.3,22.7C282.6,540.6,268.3,560,249.5,573.5z"/>
</g>
<g>
	<text transform="matrix(1 0 0 1 349.6607 518.282)" class="st2 st3 st4">ИЛАН76</text>
	<text transform="matrix(1 0 0 1 378.8408 567.5125)" class="st2 st3 st5">портал о недвижимости</text>
</g>
</svg>
